<svg width="32" height="32" viewBox="0 0 32 32" fill="none" xmlns="http://www.w3.org/2000/svg">
  <!-- Background with very rounded corners (squircle-like) -->
  <rect width="32" height="32" rx="12" fill="#1a2e2e"/>
  
  <!-- Ghost body - more accurate wavy shape -->
  <path d="M16 7C11 7 7 11 7 16C7 21 11 25 16 25C21 25 25 21 25 16C25 11 21 7 16 7ZM16 23C12 23 9 20 9 16C9 12 12 9 16 9C20 9 23 12 23 16C23 20 20 23 16 23Z" fill="#f0f0f0"/>
  
  <!-- Ghost bottom wavy part - more pronounced waves -->
  <path d="M10 23C10 25 13 27 16 27C19 27 22 25 22 23L20 23C20 24 18 25 16 25C14 25 12 24 12 23L10 23Z" fill="#f0f0f0"/>
  
  <!-- Ghost antenna/protrusion - more rounded and prominent -->
  <ellipse cx="16" cy="9" rx="1.5" ry="2" fill="#f0f0f0"/>
  
  <!-- Eyes - more oval and spaced -->
  <ellipse cx="13.5" cy="14" rx="1.2" ry="1.8" fill="#000000"/>
  <ellipse cx="18.5" cy="14" rx="1.2" ry="1.8" fill="#000000"/>
  
  <!-- Smile - more curved and cheerful -->
  <path d="M13 17.5Q16 19.5 19 17.5" stroke="#000000" stroke-width="1.8" stroke-linecap="round" fill="none"/>
</svg> 